<svg width="196" height="182" viewBox="0 0 196 182" fill="none" xmlns="http://www.w3.org/2000/svg">
<path d="M196 91C196 141.258 152.124 182 98 182C43.8761 182 0 141.258 0 91C0 40.7421 43.8761 0 98 0C152.124 0 196 40.7421 196 91Z" fill="white"/>
<g clip-path="url(#clip0_35_840)">
<path d="M139 33H55C50.5817 33 47 36.5817 47 41C47 45.4183 50.5817 49 55 49H139C143.418 49 147 45.4183 147 41C147 36.5817 143.418 33 139 33Z" fill="#333333"/>
<path d="M159 53.8H55C50.5817 53.8 47 57.3818 47 61.8C47 66.2183 50.5817 69.8 55 69.8H159C163.418 69.8 167 66.2183 167 61.8C167 57.3818 163.418 53.8 159 53.8Z" fill="#333333"/>
<path d="M139 95.4H55C50.5817 95.4 47 98.9817 47 103.4C47 107.818 50.5817 111.4 55 111.4H139C143.418 111.4 147 107.818 147 103.4C147 98.9817 143.418 95.4 139 95.4Z" fill="#333333"/>
<path d="M81 116.2H55C50.5817 116.2 47 119.782 47 124.2C47 128.618 50.5817 132.2 55 132.2H81C85.4183 132.2 89 128.618 89 124.2C89 119.782 85.4183 116.2 81 116.2Z" fill="#333333"/>
<path d="M81 137H55C50.5817 137 47 140.582 47 145C47 149.418 50.5817 153 55 153H81C85.4183 153 89 149.418 89 145C89 140.582 85.4183 137 81 137Z" fill="#333333"/>
<path d="M159 74.6H55C50.5817 74.6 47 78.1817 47 82.6C47 87.0183 50.5817 90.6 55 90.6H159C163.418 90.6 167 87.0183 167 82.6C167 78.1817 163.418 74.6 159 74.6Z" fill="#333333"/>
</g>
<defs>
<clipPath id="clip0_35_840">
<rect width="120" height="120" fill="white" transform="translate(47 33)"/>
</clipPath>
</defs>
</svg>
