<svg width="1000" height="1000" viewBox="0 0 1000 1000" fill="none" xmlns="http://www.w3.org/2000/svg">
<path d="M1000 500C1000 776.142 776.142 1000 500 1000C223.858 1000 0 776.142 0 500C0 223.858 223.858 0 500 0C776.142 0 1000 223.858 1000 500Z" fill="white"/>
<g clip-path="url(#clip0_35_840)">
<path d="M709.184 181.319H280.612C258.07 181.319 239.796 200.999 239.796 225.275C239.796 249.551 258.07 269.231 280.612 269.231H709.184C731.726 269.231 750 249.551 750 225.275C750 200.999 731.726 181.319 709.184 181.319Z" fill="#333333"/>
<path d="M811.224 295.604H280.612C258.07 295.604 239.796 315.284 239.796 339.561C239.796 363.837 258.07 383.517 280.612 383.517H811.224C833.767 383.517 852.041 363.837 852.041 339.561C852.041 315.284 833.767 295.604 811.224 295.604Z" fill="#333333"/>
<path d="M709.184 524.176H280.612C258.07 524.176 239.796 543.856 239.796 568.132C239.796 592.408 258.07 612.088 280.612 612.088H709.184C731.726 612.088 750 592.408 750 568.132C750 543.856 731.726 524.176 709.184 524.176Z" fill="#333333"/>
<path d="M413.265 638.462H280.612C258.07 638.462 239.796 658.141 239.796 682.418C239.796 706.694 258.07 726.374 280.612 726.374H413.265C435.808 726.374 454.082 706.694 454.082 682.418C454.082 658.141 435.808 638.462 413.265 638.462Z" fill="#333333"/>
<path d="M413.265 752.747H280.612C258.07 752.747 239.796 772.427 239.796 796.703C239.796 820.98 258.07 840.659 280.612 840.659H413.265C435.808 840.659 454.082 820.98 454.082 796.703C454.082 772.427 435.808 752.747 413.265 752.747Z" fill="#333333"/>
<path d="M811.224 409.89H280.612C258.07 409.89 239.796 429.57 239.796 453.846C239.796 478.122 258.07 497.802 280.612 497.802H811.224C833.767 497.802 852.041 478.122 852.041 453.846C852.041 429.57 833.767 409.89 811.224 409.89Z" fill="#333333"/>
</g>
<defs>
<clipPath id="clip0_35_840">
<rect width="612.245" height="659.341" fill="white" transform="translate(239.796 181.319)"/>
</clipPath>
</defs>
</svg>
