<?xml version="1.0" encoding="UTF-8"?>
<svg id="_レイヤー_2" data-name="レイヤー 2" xmlns="http://www.w3.org/2000/svg" viewBox="0 0 398.07 120">
  <defs>
    <style>
      .cls-1 {
        fill: #1c2024;
      }
    </style>
  </defs>
  <g id="_レイヤー_1-2" data-name="レイヤー 1">
    <g>
      <rect class="cls-1" x="0" y="0" width="100" height="16" rx="8" ry="8"/>
      <rect class="cls-1" x="0" y="20.8" width="120" height="16" rx="8" ry="8"/>
      <rect class="cls-1" x="0" y="62.4" width="100" height="16" rx="8" ry="8"/>
      <rect class="cls-1" x="0" y="83.2" width="42" height="16" rx="8" ry="8"/>
      <rect class="cls-1" x="0" y="104" width="42" height="16" rx="8" ry="8"/>
      <rect class="cls-1" x="0" y="41.6" width="120" height="16" rx="8" ry="8"/>
    </g>
    <g>
      <path class="cls-1" d="M212.57,37.48c3.56,2.26,6.38,5.39,8.45,9.4,2.07,4.01,3.1,8.56,3.1,13.65s-1.02,9.66-3.05,13.69c-2.04,4.04-4.82,7.19-8.35,9.45-3.53,2.26-7.43,3.39-11.69,3.39-3.05,0-5.93-.62-8.64-1.86-2.7-1.24-4.95-2.75-6.73-4.53v18.7c0,1.65-.54,3.04-1.62,4.15-1.08,1.11-2.45,1.67-4.1,1.67s-3.02-.54-4.1-1.62c-1.08-1.08-1.62-2.48-1.62-4.2v-58.5c0-1.65.54-3.04,1.62-4.15,1.08-1.11,2.45-1.67,4.1-1.67s3.02.56,4.1,1.67c1.08,1.11,1.62,2.5,1.62,4.15v.38c1.53-1.91,3.66-3.58,6.39-5.01,2.74-1.43,5.6-2.15,8.59-2.15,4.39,0,8.37,1.13,11.93,3.39ZM209.23,71.98c2.61-3.05,3.91-6.87,3.91-11.45s-1.29-8.38-3.87-11.4c-2.58-3.02-5.93-4.53-10.07-4.53s-7.51,1.51-10.12,4.53c-2.61,3.02-3.91,6.82-3.91,11.4s1.3,8.4,3.91,11.45c2.61,3.05,5.98,4.58,10.12,4.58s7.41-1.53,10.02-4.58Z"/>
      <path class="cls-1" d="M229.26,27.79c-.89-.7-1.34-1.94-1.34-3.72v-1.81c0-1.78.48-3.02,1.43-3.72.96-.7,2.48-1.05,4.58-1.05,2.23,0,3.78.35,4.68,1.05.89.7,1.34,1.94,1.34,3.72v1.81c0,1.85-.46,3.1-1.38,3.77-.92.67-2.5,1-4.72,1s-3.69-.35-4.58-1.05ZM238.04,84.43c-1.08,1.11-2.45,1.67-4.1,1.67s-3.02-.56-4.1-1.67c-1.08-1.11-1.62-2.5-1.62-4.15v-39.41c0-1.65.54-3.04,1.62-4.15,1.08-1.11,2.45-1.67,4.1-1.67s3.02.56,4.1,1.67c1.08,1.11,1.62,2.5,1.62,4.15v39.41c0,1.66-.54,3.04-1.62,4.15Z"/>
      <path class="cls-1" d="M290.91,80.37c0,1.59-.62,2.93-1.86,4.01-1.24,1.08-2.56,1.62-3.96,1.62-1.66,0-3.05-.63-4.2-1.91l-17.18-18.13-4.68,4.29v10.02c0,1.66-.54,3.04-1.62,4.15-1.08,1.11-2.45,1.67-4.1,1.67s-3.02-.56-4.1-1.67c-1.08-1.11-1.62-2.5-1.62-4.15V21.3c0-1.65.54-3.04,1.62-4.15,1.08-1.11,2.45-1.67,4.1-1.67s3.02.56,4.1,1.67c1.08,1.11,1.62,2.5,1.62,4.15v35.31l20.42-19.75c1.21-1.21,2.61-1.81,4.2-1.81,1.4,0,2.66.59,3.77,1.77,1.11,1.18,1.67,2.37,1.67,3.58,0,1.53-.76,2.96-2.29,4.29l-14.41,13.26,16.7,18.13c1.21,1.27,1.81,2.71,1.81,4.29Z"/>
      <path class="cls-1" d="M339.96,80.37c0,1.59-.62,2.93-1.86,4.01-1.24,1.08-2.56,1.62-3.96,1.62-1.66,0-3.05-.63-4.2-1.91l-17.18-18.13-4.68,4.29v10.02c0,1.66-.54,3.04-1.62,4.15-1.08,1.11-2.45,1.67-4.1,1.67s-3.02-.56-4.1-1.67c-1.08-1.11-1.62-2.5-1.62-4.15V21.3c0-1.65.54-3.04,1.62-4.15,1.08-1.11,2.45-1.67,4.1-1.67s3.02.56,4.1,1.67c1.08,1.11,1.62,2.5,1.62,4.15v35.31l20.42-19.75c1.21-1.21,2.61-1.81,4.2-1.81,1.4,0,2.66.59,3.77,1.77,1.11,1.18,1.67,2.37,1.67,3.58,0,1.53-.76,2.96-2.29,4.29l-14.41,13.26,16.7,18.13c1.21,1.27,1.81,2.71,1.81,4.29Z"/>
      <path class="cls-1" d="M390.25,35.71c1.08,1.08,1.62,2.48,1.62,4.2v40.37c0,1.66-.54,3.04-1.62,4.15-1.08,1.11-2.45,1.67-4.1,1.67s-3.01-.54-4.06-1.62c-1.05-1.08-1.61-2.45-1.67-4.1-1.59,1.85-3.74,3.42-6.44,4.72-2.7,1.3-5.55,1.96-8.54,1.96-4.39,0-8.37-1.13-11.93-3.39-3.56-2.26-6.38-5.39-8.45-9.4-2.07-4.01-3.1-8.56-3.1-13.65s1.02-9.65,3.05-13.69c2.04-4.04,4.82-7.19,8.35-9.45,3.53-2.26,7.43-3.39,11.69-3.39,3.05,0,5.92.56,8.59,1.67,2.67,1.11,4.93,2.53,6.78,4.25v-.1c0-1.65.54-3.04,1.62-4.15,1.08-1.11,2.45-1.67,4.1-1.67s3.02.54,4.1,1.62ZM376.99,72.02c2.61-3.02,3.91-6.82,3.91-11.4s-1.3-8.4-3.91-11.45c-2.61-3.05-5.98-4.58-10.12-4.58s-7.41,1.53-10.02,4.58c-2.61,3.05-3.91,6.87-3.91,11.45s1.29,8.38,3.87,11.4c2.58,3.02,5.93,4.53,10.07,4.53s7.51-1.51,10.12-4.53Z"/>
    </g>
  </g>
</svg>